<svg xmlns="http://www.w3.org/2000/svg" viewBox="0 0 512 512">
  <rect width="512" height="512" rx="112" fill="#128c5e"/>
  <path d="M256 96c-88.4 0-160 62.7-160 140 0 44.5 23.8 84.2 61 110.1-3.4 20.4-12.6 38.9-26.4 53.5-2.6 2.8-.7 7.4 3.1 7.2 32.4-1.7 61.9-13.9 84.9-32.9 12.1 2.7 24.6 4.1 37.4 4.1 88.4 0 160-62.7 160-140S344.4 96 256 96z" fill="#fff"/>
  <circle cx="196" cy="236" r="18" fill="#128c5e"/>
  <circle cx="256" cy="236" r="18" fill="#128c5e"/>
  <circle cx="316" cy="236" r="18" fill="#128c5e"/>
</svg>
